<svg fill="none" height="42" viewBox="0 0 24 24" width="42" xmlns="http://www.w3.org/2000/svg"><path d="m21 18v-6h-5l-2 3h-4l-1.5-3h-5.5v6c0 1.1046.89543 2 2 2h14c1.1046 0 2-.8954 2-2z" fill="#001a72" opacity=".15"/><g stroke="#001a72" stroke-linecap="round" stroke-linejoin="round" stroke-width="1.5"><path d="m3 12h5.5l1.5 3h4l2-3h5"/><path d="m21 18v-6l-2.7567-7.35112c-.1463-.39031-.5195-.64888-.9363-.64888h-10.614c-.41684 0-.78996.25857-.93633.64888l-2.75667 7.35112v6c0 1.1046.89543 2 2 2h14c1.1046 0 2-.8954 2-2z"/></g></svg>