<svg xmlns="http://www.w3.org/2000/svg" viewBox="0 0 1440 320"><path fill="#605DFF" fill-opacity="1" d="M0,128L26.7,112C53.3,96,107,64,160,74.7C213.3,85,267,139,320,176C373.3,213,427,235,480,213.3C533.3,192,587,128,640,85.3C693.3,43,747,21,800,37.3C853.3,53,907,107,960,122.7C1013.3,139,1067,117,1120,138.7C1173.3,160,1227,224,1280,218.7C1333.3,213,1387,139,1413,101.3L1440,64L1440,320L1413.3,320C1386.7,320,1333,320,1280,320C1226.7,320,1173,320,1120,320C1066.7,320,1013,320,960,320C906.7,320,853,320,800,320C746.7,320,693,320,640,320C586.7,320,533,320,480,320C426.7,320,373,320,320,320C266.7,320,213,320,160,320C106.7,320,53,320,27,320L0,320Z"></path></svg>
